<?xml version="1.0" encoding="UTF-8"?>
<svg width="4000px" height="4000px" viewBox="0 0 4000 4000" version="1.1" xmlns="http://www.w3.org/2000/svg" xmlns:xlink="http://www.w3.org/1999/xlink">
    <!-- Generator: Sketch 52.6 (67491) - http://www.bohemiancoding.com/sketch -->
    <title>logo</title>
    <desc>Created with Sketch.</desc>
    <g id="Page-1" stroke="none" stroke-width="1" fill="none" fill-rule="evenodd">
        <g id="logo">
            <rect id="Rectangle" stroke="#2D6647" stroke-width="80" fill="#BDDBC5" fill-rule="nonzero" x="40" y="40" width="3920" height="3920" rx="1960"></rect>
            <path d="M2389.53828,3090.05214 C2389.53828,2871.23638 2215.62782,2693.85115 2001.09841,2693.85115 C1786.56899,2693.85115 1612.65854,2871.23638 1612.65854,3090.05214 L1036,3090.05214 L1415.09778,1105 L2581.40934,1105 L2963.0648,3090.05214 L2389.53828,3090.05214 Z" id="Path" fill-opacity="0.7" fill="#F5F7F4" fill-rule="nonzero"></path>
            <path d="M1331.34315,2398.26966 C1342.04458,2385.2664 1361.2827,2383.40663 1374.27075,2394.10804 C1387.25881,2404.80946 1389.11861,2424.01716 1378.41718,2437.02044 C1278.40001,2558.47095 1130.9734,2628.12169 973.912473,2628.12169 C685.034995,2628.12169 450,2393.08669 450,2104.20919 L450,1496.39265 C450,1426.6352 504.635202,1372 574.392645,1372 C643.906192,1372 700.477405,1427.79377 700.477405,1496.39265 L700.477405,1704.14054 C700.477405,1720.97014 686.818597,1734.62895 669.988998,1734.62895 C653.159399,1734.62895 639.500592,1720.97014 639.500592,1704.14054 L639.500592,1496.39265 C639.500592,1461.42245 610.292725,1432.97679 574.392645,1432.97679 C538.233426,1432.97679 510.976813,1460.2334 510.976813,1496.39262 L510.976813,2104.2244 C510.976813,2359.48844 718.648489,2567.16012 973.912527,2567.16012 C1112.66518,2567.16012 1242.94206,2505.60408 1331.34313,2398.26975 L1331.34315,2398.26966 Z M1373.41714,1372.00005 L1373.41711,1372.00005 C1443.1898,1372.00005 1497.825,1426.63526 1497.79451,1496.3927 L1497.79451,2104.22449 C1497.79451,2156.89316 1489.97422,2208.9521 1474.51663,2258.93781 C1469.53177,2275.02044 1452.45828,2283.99927 1436.37567,2279.06014 C1420.30827,2274.09053 1411.28372,2257.01704 1416.25333,2240.91918 C1429.91213,2196.75675 1436.833,2150.78026 1436.833,2104.20924 L1436.833,1496.3927 C1436.833,1460.23348 1409.57639,1432.97687 1373.41717,1432.97687 C1336.90732,1432.97687 1308.29395,1460.82801 1308.29395,1496.3927 L1308.29395,2104.20924 C1308.29395,2288.60303 1158.29107,2438.60591 973.897284,2438.60591 C789.503494,2438.60591 639.485376,2288.60303 639.485376,2104.20924 L639.485376,1854.05201 C639.485376,1837.22241 653.144183,1823.5636 669.973782,1823.5636 C686.803381,1823.5636 700.462189,1837.22241 700.462189,1854.05201 L700.462189,2104.20924 C700.462189,2254.97432 823.116989,2377.62912 973.897311,2377.62912 C1124.66239,2377.62912 1247.31719,2254.97432 1247.31719,2104.20924 L1247.31719,1496.3927 C1247.31719,1426.63526 1302.69933,1372.00005 1373.41714,1372.00005 Z M2201.31439,2123.63027 L2201.31442,2123.63022 C2230.5985,2211.90934 2310.76772,2449.61209 2329.68576,2488.77443 C2337.00296,2503.9424 2330.64613,2522.17446 2315.4934,2529.49168 C2300.34067,2536.82412 2282.09337,2530.45205 2274.77615,2515.29932 C2253.66295,2471.57898 2174.62181,2236.28485 2150.39877,2163.72249 L1928.07743,2163.72249 L1928.07743,2503.72902 C1928.07743,2572.3279 1871.52146,2628.12166 1801.99267,2628.12166 C1733.39379,2628.12166 1677.60003,2572.3279 1677.60003,2503.72902 L1677.60003,2264.77627 C1677.60003,2247.94667 1691.25883,2234.28786 1708.08843,2234.28786 C1724.91803,2234.28786 1738.57684,2247.94667 1738.57684,2264.77627 L1738.57684,2503.72902 C1738.57684,2538.69921 1767.0225,2567.14488 1801.9927,2567.14488 C1837.89278,2567.14488 1867.10065,2538.69921 1867.10065,2503.72902 L1867.10065,2133.23411 C1867.10065,2116.40451 1880.75945,2102.7457 1897.58905,2102.7457 L2172.38091,2102.7457 C2185.52141,2102.7457 2197.1832,2111.16051 2201.31439,2123.63027 Z M1897.58905,1799.91973 L1897.58905,1799.91982 C1914.41865,1799.91982 1928.07746,1813.56335 1928.07746,1830.40819 L1928.07746,1913.24514 L2107.5931,1913.24514 C2187.74707,1913.24514 2252.96175,1848.79269 2252.96175,1769.58384 C2252.96175,1687.11275 2189.11907,1622.50784 2107.5931,1622.50784 L1928.07746,1622.50784 L1928.07746,1687.12799 C1928.07746,1703.95759 1914.41865,1717.6164 1897.58905,1717.6164 C1880.75945,1717.6164 1867.10065,1703.95759 1867.10065,1687.12799 L1867.10065,1592.01946 C1867.10065,1575.18986 1880.75945,1561.53105 1897.58905,1561.53105 L2107.59307,1561.53105 C2221.37575,1561.53105 2313.93851,1654.87125 2313.93851,1769.58382 C2313.93851,1882.43659 2221.37573,1974.22189 2107.59307,1974.22189 L1897.58905,1974.22189 C1880.75945,1974.22189 1867.10065,1960.56309 1867.10065,1943.73349 L1867.10065,1830.40814 C1867.10065,1813.57854 1880.75945,1799.91973 1897.58905,1799.91973 Z M2551.22965,2445.77064 L2551.22971,2445.7707 C2562.22076,2477.67681 2559.91888,2511.6256 2544.78139,2541.61095 C2529.87259,2571.12371 2504.24709,2593.38026 2472.64588,2604.2646 C2469.36835,2605.39268 2466.01464,2605.94147 2462.7219,2605.94147 C2450.06922,2605.94147 2438.23972,2597.99924 2433.89512,2585.3618 C2428.39196,2569.44687 2436.8525,2552.08372 2452.78268,2546.61104 C2469.29214,2540.90972 2482.63083,2529.36987 2490.34438,2514.09517 C2497.98172,2498.97292 2499.15553,2481.83846 2493.65237,2465.86255 C2484.36865,2439.59679 2405.17505,2254.45604 2312.33791,2062.867 C2306.24022,2050.26003 2309.50247,2035.12254 2320.26487,2026.15896 C2399.07736,1960.48698 2442.47758,1869.37242 2442.47758,1769.56868 C2442.47758,1583.9706 2292.24603,1432.97684 2107.5931,1432.97684 L1801.97748,1432.97684 C1765.81826,1432.97684 1738.56165,1460.23345 1738.56165,1496.39267 L1738.56165,2129.83472 C1738.56165,2146.66432 1724.90284,2160.32312 1708.07325,2160.32312 C1691.24365,2160.32312 1677.58484,2146.66432 1677.58484,2129.83472 L1677.58484,1496.40794 C1677.58484,1426.6505 1732.22004,1372.0153 1801.97748,1372.0153 L2107.5931,1372.0153 C2325.87471,1372.0153 2503.45434,1550.35713 2503.45434,1769.5839 C2503.45434,1879.93662 2458.84982,1981.18857 2377.29339,2057.16562 C2463.65175,2236.81848 2539.85749,2413.57491 2551.22965,2445.77064 Z M2939.78903,1761.68737 L2939.78911,1761.68748 C2956.63395,1761.68748 2970.27749,1775.33101 2970.27749,1792.17585 L2970.27749,1834.6919 L3086.62119,1834.6919 C3144.18326,1834.6919 3191.01342,1786.33731 3191.01342,1726.9002 C3191.01342,1668.34725 3145.15887,1622.4927 3086.62116,1622.4927 L2970.27746,1622.4927 L2970.27746,1660.90807 C2970.27746,1677.73767 2956.61865,1691.39648 2939.78905,1691.39648 C2922.95945,1691.39648 2909.30065,1677.73767 2909.30065,1660.90807 L2909.30065,1592.0043 C2909.30065,1575.1747 2922.95945,1561.51589 2939.78905,1561.51589 L3086.62114,1561.51589 C3179.35157,1561.51589 3251.99015,1634.16971 3251.99015,1726.90015 C3251.99015,1819.95072 3177.79665,1895.66863 3086.62111,1895.66863 L2939.78903,1895.66863 C2922.95943,1895.66863 2909.30062,1882.00982 2909.30062,1865.18022 L2909.30062,1792.17577 C2909.30062,1775.34617 2922.95943,1761.68737 2939.78903,1761.68737 Z M3462.66499,2428.25514 C3476.07993,2438.42307 3478.73242,2457.53928 3468.56454,2470.95416 C3392.95334,2570.83414 3278.01209,2628.12183 3153.20787,2628.12183 L2851.00694,2628.12183 C2849.86362,2628.12183 2848.73557,2628.06085 2847.62274,2627.9389 C2846.47942,2628.06085 2845.3361,2628.12183 2844.17754,2628.12183 C2775.5939,2628.12183 2719.78489,2572.32806 2719.78489,2503.72918 L2719.78489,2362.67464 C2719.78489,2345.84504 2733.4437,2332.18624 2750.2733,2332.18624 C2767.1029,2332.18624 2780.76171,2345.84504 2780.76171,2362.67464 L2780.76171,2503.72918 C2780.76171,2536.30601 2806.84451,2564.0962 2838.82684,2566.91636 C2845.42759,2564.99559 2853.00395,2564.93462 2859.40651,2567.16026 L3153.20787,2567.16026 C3258.74344,2567.16026 3355.97091,2518.68372 3419.95078,2434.1699 C3430.11865,2420.73975 3449.25011,2418.08727 3462.66499,2428.25514 Z M2909.30076,2408.11758 L2909.3007,2054.69625 C2909.3007,2037.86665 2922.95951,2024.20785 2939.78911,2024.20785 L3008.38799,2024.20785 C3025.21759,2024.20785 3038.8764,2037.86665 3038.8764,2054.69625 C3038.8764,2071.52585 3025.21759,2085.18466 3008.38799,2085.18466 L2970.27752,2085.18466 L2970.27752,2377.62929 L3153.20787,2377.62929 C3234.48992,2376.21158 3298.57649,2311.59143 3298.57649,2230.56852 C3298.57649,2150.49074 3234.48992,2086.63282 3152.67432,2085.19985 L3105.67646,2085.19985 C3088.84686,2085.19985 3075.18805,2071.54104 3075.18805,2054.71144 C3075.18805,2037.88184 3088.84686,2024.22303 3105.67646,2024.22303 L3153.20784,2024.22303 C3269.15522,2026.26578 3359.55328,2116.89252 3359.55328,2230.56847 C3359.55328,2345.18957 3269.15522,2436.56325 3153.74142,2438.60599 L2939.78916,2438.60599 C2922.95956,2438.60599 2909.30076,2424.94718 2909.30076,2408.11758 Z M3475.15002,2002.19525 C3523.50459,2069.66606 3549.06911,2148.64625 3549.08436,2230.55331 C3549.08436,2274.79196 3541.91959,2318.20742 3527.77299,2359.64113 C3523.44364,2372.30905 3511.59889,2380.26653 3498.91573,2380.28177 C3495.65348,2380.28177 3492.33025,2379.74822 3489.068,2378.63539 C3473.12258,2373.20847 3464.61633,2355.87581 3470.05852,2339.93039 C3482.04045,2304.86876 3488.10765,2268.06928 3488.10765,2230.55334 C3488.10765,2161.45142 3466.49139,2094.75806 3425.60646,2037.71427 C3399.67606,2001.53981 3367.44984,1971.09716 3329.82718,1947.27048 C3322.64715,1942.71247 3317.69279,1935.38 3316.15311,1927.01095 C3314.61343,1918.64189 3316.65614,1910.01367 3321.7477,1903.21476 C3360.2088,1851.94851 3380.52931,1790.97173 3380.52931,1726.88515 C3380.52931,1564.82412 3248.68227,1432.97706 3086.62125,1432.97706 L2844.17757,1432.97706 C2809.20737,1432.97706 2780.76171,1461.42272 2780.76171,1496.39292 L2780.76171,2156.67997 C2780.76171,2173.50957 2767.1029,2187.16838 2750.2733,2187.16838 C2733.4437,2187.16838 2719.78489,2173.50957 2719.78489,2156.67997 L2719.78489,1496.39292 C2719.78489,1427.79404 2775.57866,1372.00027 2844.17754,1372.00027 L3086.62122,1372.00027 C3282.31093,1372.00027 3441.50607,1531.19538 3441.50607,1726.88512 C3441.50607,1793.63943 3423.24352,1857.58884 3388.42579,1913.64174 C3421.68863,1938.50501 3450.78979,1968.2007 3475.15002,2002.19525 Z" id="URB" stroke="#2D6647" stroke-width="56" fill="#2D6647"></path>
        </g>
    </g>
</svg>